<svg width="52" height="52" viewBox="0 0 52 52" fill="none" xmlns="http://www.w3.org/2000/svg">
<circle cx="26" cy="26" r="26" fill="#628369"/>
<g clip-path="url(#clip0_151_12019)">
<path d="M25 12.036C22.4079 12.2218 19.9187 13.1253 17.8111 14.6455C15.7034 16.1656 14.0604 18.2424 13.0661 20.6434C12.0717 23.0443 11.7653 25.6746 12.181 28.2399C12.5967 30.8051 13.7183 33.204 15.42 35.168L25 25.586V12.036ZM27 12.036V25H39.964C39.723 21.6414 38.2798 18.4822 35.8988 16.1012C33.5178 13.7202 30.3586 12.277 27 12.036ZM39.964 27H26.414L16.834 36.58C18.798 38.2812 21.1968 39.4022 23.7617 39.8176C26.3266 40.233 28.9565 39.9264 31.3571 38.9321C33.7577 37.9379 35.8342 36.2951 37.3543 34.1878C38.8744 32.0805 39.778 29.5917 39.964 27ZM10 26C10 21.7565 11.6857 17.6869 14.6863 14.6863C17.6869 11.6857 21.7565 10 26 10C30.2435 10 34.3131 11.6857 37.3137 14.6863C40.3143 17.6869 42 21.7565 42 26C42 30.2435 40.3143 34.3131 37.3137 37.3137C34.3131 40.3143 30.2435 42 26 42C21.7565 42 17.6869 40.3143 14.6863 37.3137C11.6857 34.3131 10 30.2435 10 26Z" fill="white"/>
</g>
<defs>
<clipPath id="clip0_151_12019">
<rect width="32" height="32" fill="white" transform="translate(10 10)"/>
</clipPath>
</defs>
</svg>
