<svg width="33" height="32" viewBox="0 0 33 32" fill="none" xmlns="http://www.w3.org/2000/svg">
<path d="M15.8358 2.036C13.2438 2.22175 10.7546 3.12529 8.64688 4.64546C6.5392 6.16563 4.89623 8.24244 3.90189 10.6434C2.90755 13.0443 2.60109 15.6746 3.01683 18.2399C3.43256 20.8051 4.55407 23.204 6.25582 25.168L15.8358 15.586V2.036ZM17.8358 2.036V15H30.7998C30.5588 11.6414 29.1156 8.48216 26.7346 6.10119C24.3536 3.72021 21.1944 2.27698 17.8358 2.036ZM30.7998 17H17.2498L7.66982 26.58C9.63386 28.2812 12.0326 29.4022 14.5975 29.8176C17.1624 30.233 19.7924 29.9264 22.1929 28.9321C24.5935 27.9379 26.6701 26.2951 28.1901 24.1878C29.7102 22.0805 30.6138 19.5917 30.7998 17ZM0.835815 16C0.835815 11.7565 2.52153 7.68687 5.52211 4.68629C8.52269 1.68571 12.5924 0 16.8358 0C21.0793 0 25.1489 1.68571 28.1495 4.68629C31.1501 7.68687 32.8358 11.7565 32.8358 16C32.8358 20.2435 31.1501 24.3131 28.1495 27.3137C25.1489 30.3143 21.0793 32 16.8358 32C12.5924 32 8.52269 30.3143 5.52211 27.3137C2.52153 24.3131 0.835815 20.2435 0.835815 16Z" fill="#5A4A42"/>
</svg>
