<svg width="53" height="52" viewBox="0 0 53 52" fill="none" xmlns="http://www.w3.org/2000/svg">
<circle cx="26.5" cy="26" r="26" fill="#628369"/>
<g clip-path="url(#clip0_151_8332)">
<path d="M40.5 38C40.5 38 42.5 38 42.5 36C42.5 34 40.5 28 32.5 28C24.5 28 22.5 34 22.5 36C22.5 38 24.5 38 24.5 38H40.5ZM24.544 36C24.5292 35.998 24.5145 35.9953 24.5 35.992C24.502 35.464 24.834 33.932 26.02 32.552C27.124 31.258 29.064 30 32.5 30C35.934 30 37.874 31.26 38.98 32.552C40.166 33.932 40.496 35.466 40.5 35.992L40.484 35.996C40.4747 35.9976 40.4654 35.9989 40.456 36H24.544ZM32.5 24C33.5609 24 34.5783 23.5786 35.3284 22.8284C36.0786 22.0783 36.5 21.0609 36.5 20C36.5 18.9391 36.0786 17.9217 35.3284 17.1716C34.5783 16.4214 33.5609 16 32.5 16C31.4391 16 30.4217 16.4214 29.6716 17.1716C28.9214 17.9217 28.5 18.9391 28.5 20C28.5 21.0609 28.9214 22.0783 29.6716 22.8284C30.4217 23.5786 31.4391 24 32.5 24ZM38.5 20C38.5 20.7879 38.3448 21.5681 38.0433 22.2961C37.7417 23.0241 37.2998 23.6855 36.7426 24.2426C36.1855 24.7998 35.5241 25.2417 34.7961 25.5433C34.0681 25.8448 33.2879 26 32.5 26C31.7121 26 30.9319 25.8448 30.2039 25.5433C29.4759 25.2417 28.8145 24.7998 28.2574 24.2426C27.7002 23.6855 27.2583 23.0241 26.9567 22.2961C26.6552 21.5681 26.5 20.7879 26.5 20C26.5 18.4087 27.1321 16.8826 28.2574 15.7574C29.3826 14.6321 30.9087 14 32.5 14C34.0913 14 35.6174 14.6321 36.7426 15.7574C37.8679 16.8826 38.5 18.4087 38.5 20ZM24.372 28.56C23.572 28.3081 22.7473 28.1425 21.912 28.066C21.4427 28.0214 20.9715 27.9993 20.5 28C12.5 28 10.5 34 10.5 36C10.5 37.334 11.166 38 12.5 38H20.932C20.6355 37.3756 20.4876 36.6911 20.5 36C20.5 33.98 21.254 31.916 22.68 30.192C23.166 29.604 23.732 29.054 24.372 28.56ZM20.34 30C19.1563 31.7785 18.5169 33.8636 18.5 36H12.5C12.5 35.48 12.828 33.94 14.02 32.552C15.11 31.28 17.004 30.04 20.34 30.002V30ZM13.5 21C13.5 19.4087 14.1321 17.8826 15.2574 16.7574C16.3826 15.6321 17.9087 15 19.5 15C21.0913 15 22.6174 15.6321 23.7426 16.7574C24.8679 17.8826 25.5 19.4087 25.5 21C25.5 22.5913 24.8679 24.1174 23.7426 25.2426C22.6174 26.3679 21.0913 27 19.5 27C17.9087 27 16.3826 26.3679 15.2574 25.2426C14.1321 24.1174 13.5 22.5913 13.5 21ZM19.5 17C18.4391 17 17.4217 17.4214 16.6716 18.1716C15.9214 18.9217 15.5 19.9391 15.5 21C15.5 22.0609 15.9214 23.0783 16.6716 23.8284C17.4217 24.5786 18.4391 25 19.5 25C20.5609 25 21.5783 24.5786 22.3284 23.8284C23.0786 23.0783 23.5 22.0609 23.5 21C23.5 19.9391 23.0786 18.9217 22.3284 18.1716C21.5783 17.4214 20.5609 17 19.5 17Z" fill="white"/>
</g>
<defs>
<clipPath id="clip0_151_8332">
<rect width="32" height="32" fill="white" transform="translate(10.5 10)"/>
</clipPath>
</defs>
</svg>
