<svg width="52" height="52" viewBox="0 0 52 52" fill="none" xmlns="http://www.w3.org/2000/svg">
<circle cx="26" cy="26" r="26" fill="#628369"/>
<g clip-path="url(#clip0_369_6491)">
<path d="M10 11C10 10.7348 10.1054 10.4804 10.2929 10.2929C10.4804 10.1054 10.7348 10 11 10H17C17.2652 10 17.5196 10.1054 17.7071 10.2929C17.8946 10.4804 18 10.7348 18 11C18 11.2652 17.8946 11.5196 17.7071 11.7071C17.5196 11.8946 17.2652 12 17 12H12V17C12 17.2652 11.8946 17.5196 11.7071 17.7071C11.5196 17.8946 11.2652 18 11 18C10.7348 18 10.4804 17.8946 10.2929 17.7071C10.1054 17.5196 10 17.2652 10 17V11Z" fill="white"/>
<path d="M34 11C34 10.7348 34.1054 10.4804 34.2929 10.2929C34.4804 10.1054 34.7348 10 35 10H41C41.2652 10 41.5196 10.1054 41.7071 10.2929C41.8946 10.4804 42 10.7348 42 11V17C42 17.2652 41.8946 17.5196 41.7071 17.7071C41.5196 17.8946 41.2652 18 41 18C40.7348 18 40.4804 17.8946 40.2929 17.7071C40.1054 17.5196 40 17.2652 40 17V12H35C34.7348 12 34.4804 11.8946 34.2929 11.7071C34.1054 11.5196 34 11.2652 34 11Z" fill="white"/>
<path d="M11 34C11.2652 34 11.5196 34.1054 11.7071 34.2929C11.8946 34.4804 12 34.7348 12 35V40H17C17.2652 40 17.5196 40.1054 17.7071 40.2929C17.8946 40.4804 18 40.7348 18 41C18 41.2652 17.8946 41.5196 17.7071 41.7071C17.5196 41.8946 17.2652 42 17 42H11C10.7348 42 10.4804 41.8946 10.2929 41.7071C10.1054 41.5196 10 41.2652 10 41V35C10 34.7348 10.1054 34.4804 10.2929 34.2929C10.4804 34.1054 10.7348 34 11 34Z" fill="white"/>
<path d="M41 34C41.2652 34 41.5196 34.1054 41.7071 34.2929C41.8946 34.4804 42 34.7348 42 35V41C42 41.2652 41.8946 41.5196 41.7071 41.7071C41.5196 41.8946 41.2652 42 41 42H35C34.7348 42 34.4804 41.8946 34.2929 41.7071C34.1054 41.5196 34 41.2652 34 41C34 40.7348 34.1054 40.4804 34.2929 40.2929C34.4804 40.1054 34.7348 40 35 40H40V35C40 34.7348 40.1054 34.4804 40.2929 34.2929C40.4804 34.1054 40.7348 34 41 34Z" fill="white"/>
<path d="M18 18H20V20H18V18Z" fill="white"/>
<path fill-rule="evenodd" clip-rule="evenodd" d="M24 14H14V24H24V14ZM16 16H22V22H16V16Z" fill="white"/>
<path d="M20 32H18V34H20V32Z" fill="white"/>
<path fill-rule="evenodd" clip-rule="evenodd" d="M14 28H24V38H14V28ZM22 30H16V36H22V30Z" fill="white"/>
<path d="M34 18H32V20H34V18Z" fill="white"/>
<path fill-rule="evenodd" clip-rule="evenodd" d="M28 14H38V24H28V14ZM30 16V22H36V16H30Z" fill="white"/>
<path fill-rule="evenodd" clip-rule="evenodd" d="M26 30H28V32H26V34H30V30H32V34H34V32H38V30H32V26H26V30ZM30 30H28V28H30V30Z" fill="white"/>
<path d="M38 34H36V36H32V38H38V34Z" fill="white"/>
<path d="M30 38V36H26V38H30Z" fill="white"/>
<path d="M38 28H34V26H38V28Z" fill="white"/>
</g>
<defs>
<clipPath id="clip0_369_6491">
<rect width="32" height="32" fill="white" transform="translate(10 10)"/>
</clipPath>
</defs>
</svg>
