<svg width="33" height="32" viewBox="0 0 33 32" fill="none" xmlns="http://www.w3.org/2000/svg">
<path d="M0.835815 1C0.835815 0.734784 0.941172 0.48043 1.12871 0.292893C1.31625 0.105357 1.5706 0 1.83582 0H7.83582C8.10103 0 8.35539 0.105357 8.54292 0.292893C8.73046 0.48043 8.83582 0.734784 8.83582 1C8.83582 1.26522 8.73046 1.51957 8.54292 1.70711C8.35539 1.89464 8.10103 2 7.83582 2H2.83582V7C2.83582 7.26522 2.73046 7.51957 2.54292 7.70711C2.35539 7.89464 2.10103 8 1.83582 8C1.5706 8 1.31625 7.89464 1.12871 7.70711C0.941172 7.51957 0.835815 7.26522 0.835815 7V1Z" fill="#5A4A42"/>
<path d="M24.8358 1C24.8358 0.734784 24.9412 0.48043 25.1287 0.292893C25.3162 0.105357 25.5706 0 25.8358 0H31.8358C32.101 0 32.3554 0.105357 32.5429 0.292893C32.7305 0.48043 32.8358 0.734784 32.8358 1V7C32.8358 7.26522 32.7305 7.51957 32.5429 7.70711C32.3554 7.89464 32.101 8 31.8358 8C31.5706 8 31.3162 7.89464 31.1287 7.70711C30.9412 7.51957 30.8358 7.26522 30.8358 7V2H25.8358C25.5706 2 25.3162 1.89464 25.1287 1.70711C24.9412 1.51957 24.8358 1.26522 24.8358 1Z" fill="#5A4A42"/>
<path d="M1.83582 24C2.10103 24 2.35539 24.1054 2.54292 24.2929C2.73046 24.4804 2.83582 24.7348 2.83582 25V30H7.83582C8.10103 30 8.35539 30.1054 8.54292 30.2929C8.73046 30.4804 8.83582 30.7348 8.83582 31C8.83582 31.2652 8.73046 31.5196 8.54292 31.7071C8.35539 31.8946 8.10103 32 7.83582 32H1.83582C1.5706 32 1.31625 31.8946 1.12871 31.7071C0.941172 31.5196 0.835815 31.2652 0.835815 31V25C0.835815 24.7348 0.941172 24.4804 1.12871 24.2929C1.31625 24.1054 1.5706 24 1.83582 24Z" fill="#5A4A42"/>
<path d="M31.8358 24C32.101 24 32.3554 24.1054 32.5429 24.2929C32.7305 24.4804 32.8358 24.7348 32.8358 25V31C32.8358 31.2652 32.7305 31.5196 32.5429 31.7071C32.3554 31.8946 32.101 32 31.8358 32H25.8358C25.5706 32 25.3162 31.8946 25.1287 31.7071C24.9412 31.5196 24.8358 31.2652 24.8358 31C24.8358 30.7348 24.9412 30.4804 25.1287 30.2929C25.3162 30.1054 25.5706 30 25.8358 30H30.8358V25C30.8358 24.7348 30.9412 24.4804 31.1287 24.2929C31.3162 24.1054 31.5706 24 31.8358 24Z" fill="#5A4A42"/>
<path d="M8.83582 8H10.8358V10H8.83582V8Z" fill="#5A4A42"/>
<path fill-rule="evenodd" clip-rule="evenodd" d="M14.8358 4H4.83582V14H14.8358V4ZM6.83582 6H12.8358V12H6.83582V6Z" fill="#5A4A42"/>
<path d="M10.8358 22H8.83582V24H10.8358V22Z" fill="#5A4A42"/>
<path fill-rule="evenodd" clip-rule="evenodd" d="M4.83582 18H14.8358V28H4.83582V18ZM12.8358 20H6.83582V26H12.8358V20Z" fill="#5A4A42"/>
<path d="M24.8358 8H22.8358V10H24.8358V8Z" fill="#5A4A42"/>
<path fill-rule="evenodd" clip-rule="evenodd" d="M18.8358 4H28.8358V14H18.8358V4ZM20.8358 6V12H26.8358V6H20.8358Z" fill="#5A4A42"/>
<path fill-rule="evenodd" clip-rule="evenodd" d="M16.8358 20H18.8358V22H16.8358V24H20.8358V20H22.8358V24H24.8358V22H28.8358V20H22.8358V16H16.8358V20ZM20.8358 20H18.8358V18H20.8358V20Z" fill="#5A4A42"/>
<path d="M28.8358 24H26.8358V26H22.8358V28H28.8358V24Z" fill="#5A4A42"/>
<path d="M20.8358 28V26H16.8358V28H20.8358Z" fill="#5A4A42"/>
<path d="M28.8358 18H24.8358V16H28.8358V18Z" fill="#5A4A42"/>
</svg>
