<svg width="52" height="52" viewBox="0 0 52 52" fill="none" xmlns="http://www.w3.org/2000/svg">
<circle cx="26" cy="26" r="26" fill="#628369"/>
<path d="M15 12C14.2044 12 13.4413 12.3161 12.8787 12.8787C12.3161 13.4413 12 14.2044 12 15V37C12 37.7956 12.3161 38.5587 12.8787 39.1213C13.4413 39.6839 14.2044 40 15 40H27.172C27.9674 39.9993 28.7299 39.6828 29.292 39.12L39.122 29.292C39.684 28.7296 39.9998 27.9671 40 27.172V15C40 14.2044 39.6839 13.4413 39.1213 12.8787C38.5587 12.3161 37.7956 12 37 12H15ZM14 15C14 14.7348 14.1054 14.4804 14.2929 14.2929C14.4804 14.1054 14.7348 14 15 14H37C37.2652 14 37.5196 14.1054 37.7071 14.2929C37.8946 14.4804 38 14.7348 38 15V26H29C28.2044 26 27.4413 26.3161 26.8787 26.8787C26.3161 27.4413 26 28.2044 26 29V38H15C14.7348 38 14.4804 37.8946 14.2929 37.7071C14.1054 37.5196 14 37.2652 14 37V15ZM28 37.586V29C28 28.7348 28.1054 28.4804 28.2929 28.2929C28.4804 28.1054 28.7348 28 29 28H37.586L28 37.586Z" fill="white"/>
</svg>
