<svg width="29" height="28" viewBox="0 0 29 28" fill="none" xmlns="http://www.w3.org/2000/svg">
<path d="M3.83582 0C3.04017 0 2.2771 0.316071 1.7145 0.87868C1.15189 1.44129 0.835815 2.20435 0.835815 3V25C0.835815 25.7956 1.15189 26.5587 1.7145 27.1213C2.2771 27.6839 3.04017 28 3.83582 28H16.0078C16.8032 27.9993 17.5657 27.6828 18.1278 27.12L27.9578 17.292C28.5199 16.7296 28.8356 15.9671 28.8358 15.172V3C28.8358 2.20435 28.5197 1.44129 27.9571 0.87868C27.3945 0.316071 26.6315 0 25.8358 0H3.83582ZM2.83582 3C2.83582 2.73478 2.94117 2.48043 3.12871 2.29289C3.31625 2.10536 3.5706 2 3.83582 2H25.8358C26.101 2 26.3554 2.10536 26.5429 2.29289C26.7305 2.48043 26.8358 2.73478 26.8358 3V14H17.8358C17.0402 14 16.2771 14.3161 15.7145 14.8787C15.1519 15.4413 14.8358 16.2044 14.8358 17V26H3.83582C3.5706 26 3.31625 25.8946 3.12871 25.7071C2.94117 25.5196 2.83582 25.2652 2.83582 25V3ZM16.8358 25.586V17C16.8358 16.7348 16.9412 16.4804 17.1287 16.2929C17.3162 16.1054 17.5706 16 17.8358 16H26.4218L16.8358 25.586Z" fill="#5A4A42"/>
</svg>
