<svg width="52" height="52" viewBox="0 0 52 52" fill="none" xmlns="http://www.w3.org/2000/svg">
<circle cx="26" cy="26" r="26" fill="#628369"/>
<g clip-path="url(#clip0_151_10816)">
<path d="M16 18.9998C16 18.7346 16.1054 18.4803 16.2929 18.2927C16.4804 18.1052 16.7348 17.9998 17 17.9998H29C29.2652 17.9998 29.5196 18.1052 29.7071 18.2927C29.8946 18.4803 30 18.7346 30 18.9998C30 19.2651 29.8946 19.5194 29.7071 19.7069C29.5196 19.8945 29.2652 19.9998 29 19.9998H17C16.7348 19.9998 16.4804 19.8945 16.2929 19.7069C16.1054 19.5194 16 19.2651 16 18.9998ZM16 22.9998C16 22.7346 16.1054 22.4803 16.2929 22.2927C16.4804 22.1052 16.7348 21.9998 17 21.9998H29C29.2652 21.9998 29.5196 22.1052 29.7071 22.2927C29.8946 22.4803 30 22.7346 30 22.9998C30 23.2651 29.8946 23.5194 29.7071 23.7069C29.5196 23.8945 29.2652 23.9998 29 23.9998H17C16.7348 23.9998 16.4804 23.8945 16.2929 23.7069C16.1054 23.5194 16 23.2651 16 22.9998ZM16 26.9998C16 26.7346 16.1054 26.4803 16.2929 26.2927C16.4804 26.1052 16.7348 25.9998 17 25.9998H29C29.2652 25.9998 29.5196 26.1052 29.7071 26.2927C29.8946 26.4803 30 26.7346 30 26.9998C30 27.2651 29.8946 27.5194 29.7071 27.7069C29.5196 27.8945 29.2652 27.9998 29 27.9998H17C16.7348 27.9998 16.4804 27.8945 16.2929 27.7069C16.1054 27.5194 16 27.2651 16 26.9998ZM16 30.9998C16 30.7346 16.1054 30.4803 16.2929 30.2927C16.4804 30.1052 16.7348 29.9998 17 29.9998H29C29.2652 29.9998 29.5196 30.1052 29.7071 30.2927C29.8946 30.4803 30 30.7346 30 30.9998C30 31.2651 29.8946 31.5194 29.7071 31.7069C29.5196 31.8945 29.2652 31.9998 29 31.9998H17C16.7348 31.9998 16.4804 31.8945 16.2929 31.7069C16.1054 31.5194 16 31.2651 16 30.9998ZM16 34.9998C16 34.7346 16.1054 34.4803 16.2929 34.2927C16.4804 34.1052 16.7348 33.9998 17 33.9998H29C29.2652 33.9998 29.5196 34.1052 29.7071 34.2927C29.8946 34.4803 30 34.7346 30 34.9998C30 35.2651 29.8946 35.5194 29.7071 35.7069C29.5196 35.8945 29.2652 35.9998 29 35.9998H17C16.7348 35.9998 16.4804 35.8945 16.2929 35.7069C16.1054 35.5194 16 35.2651 16 34.9998ZM33 17.9998C32.7348 17.9998 32.4804 18.1052 32.2929 18.2927C32.1054 18.4803 32 18.7346 32 18.9998C32 19.2651 32.1054 19.5194 32.2929 19.7069C32.4804 19.8945 32.7348 19.9998 33 19.9998H35C35.2652 19.9998 35.5196 19.8945 35.7071 19.7069C35.8946 19.5194 36 19.2651 36 18.9998C36 18.7346 35.8946 18.4803 35.7071 18.2927C35.5196 18.1052 35.2652 17.9998 35 17.9998H33ZM33 21.9998C32.7348 21.9998 32.4804 22.1052 32.2929 22.2927C32.1054 22.4803 32 22.7346 32 22.9998C32 23.2651 32.1054 23.5194 32.2929 23.7069C32.4804 23.8945 32.7348 23.9998 33 23.9998H35C35.2652 23.9998 35.5196 23.8945 35.7071 23.7069C35.8946 23.5194 36 23.2651 36 22.9998C36 22.7346 35.8946 22.4803 35.7071 22.2927C35.5196 22.1052 35.2652 21.9998 35 21.9998H33ZM33 25.9998C32.7348 25.9998 32.4804 26.1052 32.2929 26.2927C32.1054 26.4803 32 26.7346 32 26.9998C32 27.2651 32.1054 27.5194 32.2929 27.7069C32.4804 27.8945 32.7348 27.9998 33 27.9998H35C35.2652 27.9998 35.5196 27.8945 35.7071 27.7069C35.8946 27.5194 36 27.2651 36 26.9998C36 26.7346 35.8946 26.4803 35.7071 26.2927C35.5196 26.1052 35.2652 25.9998 35 25.9998H33ZM33 29.9998C32.7348 29.9998 32.4804 30.1052 32.2929 30.2927C32.1054 30.4803 32 30.7346 32 30.9998C32 31.2651 32.1054 31.5194 32.2929 31.7069C32.4804 31.8945 32.7348 31.9998 33 31.9998H35C35.2652 31.9998 35.5196 31.8945 35.7071 31.7069C35.8946 31.5194 36 31.2651 36 30.9998C36 30.7346 35.8946 30.4803 35.7071 30.2927C35.5196 30.1052 35.2652 29.9998 35 29.9998H33ZM33 33.9998C32.7348 33.9998 32.4804 34.1052 32.2929 34.2927C32.1054 34.4803 32 34.7346 32 34.9998C32 35.2651 32.1054 35.5194 32.2929 35.7069C32.4804 35.8945 32.7348 35.9998 33 35.9998H35C35.2652 35.9998 35.5196 35.8945 35.7071 35.7069C35.8946 35.5194 36 35.2651 36 34.9998C36 34.7346 35.8946 34.4803 35.7071 34.2927C35.5196 34.1052 35.2652 33.9998 35 33.9998H33Z" fill="white"/>
<path d="M14.708 11.2918C14.596 11.1797 14.4589 11.0958 14.308 11.0471C14.1572 10.9984 13.9969 10.9862 13.8404 11.0116C13.6839 11.037 13.5357 11.0992 13.4081 11.1931C13.2804 11.2871 13.1768 11.41 13.106 11.5518L12.106 13.5518C12.0363 13.6909 12 13.8443 12 13.9998V39.9998H11C10.7348 39.9998 10.4804 40.1052 10.2929 40.2927C10.1054 40.4803 10 40.7346 10 40.9998C10 41.2651 10.1054 41.5194 10.2929 41.7069C10.4804 41.8945 10.7348 41.9998 11 41.9998H41C41.2652 41.9998 41.5196 41.8945 41.7071 41.7069C41.8946 41.5194 42 41.2651 42 40.9998C42 40.7346 41.8946 40.4803 41.7071 40.2927C41.5196 40.1052 41.2652 39.9998 41 39.9998H40V13.9998C40 13.8443 39.9637 13.6909 39.894 13.5518L38.894 11.5518C38.8231 11.4104 38.7196 11.2878 38.5921 11.1941C38.4646 11.1004 38.3166 11.0383 38.1604 11.0129C38.0043 10.9876 37.8443 10.9996 37.6937 11.0481C37.543 11.0966 37.4061 11.1801 37.294 11.2918L36 12.5858L34.708 11.2918C34.6151 11.1987 34.5048 11.1248 34.3833 11.0744C34.2618 11.024 34.1315 10.998 34 10.998C33.8685 10.998 33.7382 11.024 33.6167 11.0744C33.4952 11.1248 33.3849 11.1987 33.292 11.2918L32 12.5858L30.708 11.2918C30.6151 11.1987 30.5048 11.1248 30.3833 11.0744C30.2618 11.024 30.1315 10.998 30 10.998C29.8685 10.998 29.7382 11.024 29.6167 11.0744C29.4952 11.1248 29.3849 11.1987 29.292 11.2918L28 12.5858L26.708 11.2918C26.6151 11.1987 26.5048 11.1248 26.3833 11.0744C26.2618 11.024 26.1315 10.998 26 10.998C25.8685 10.998 25.7382 11.024 25.6167 11.0744C25.4952 11.1248 25.3849 11.1987 25.292 11.2918L24 12.5858L22.708 11.2918C22.6151 11.1987 22.5048 11.1248 22.3833 11.0744C22.2618 11.024 22.1315 10.998 22 10.998C21.8685 10.998 21.7382 11.024 21.6167 11.0744C21.4952 11.1248 21.3849 11.1987 21.292 11.2918L20 12.5858L18.708 11.2918C18.6151 11.1987 18.5048 11.1248 18.3833 11.0744C18.2618 11.024 18.1315 10.998 18 10.998C17.8685 10.998 17.7382 11.024 17.6167 11.0744C17.4952 11.1248 17.3849 11.1987 17.292 11.2918L16 12.5858L14.708 11.2918ZM14.274 13.6878L15.294 14.7078C15.4815 14.8953 15.7358 15.0006 16.001 15.0006C16.2662 15.0006 16.5205 14.8953 16.708 14.7078L18 13.4138L19.292 14.7078C19.3849 14.801 19.4952 14.8748 19.6167 14.9253C19.7382 14.9757 19.8685 15.0016 20 15.0016C20.1315 15.0016 20.2618 14.9757 20.3833 14.9253C20.5048 14.8748 20.6151 14.801 20.708 14.7078L22 13.4138L23.292 14.7078C23.3849 14.801 23.4952 14.8748 23.6167 14.9253C23.7382 14.9757 23.8685 15.0016 24 15.0016C24.1315 15.0016 24.2618 14.9757 24.3833 14.9253C24.5048 14.8748 24.6151 14.801 24.708 14.7078L26 13.4138L27.292 14.7078C27.3849 14.801 27.4952 14.8748 27.6167 14.9253C27.7382 14.9757 27.8685 15.0016 28 15.0016C28.1315 15.0016 28.2618 14.9757 28.3833 14.9253C28.5048 14.8748 28.6151 14.801 28.708 14.7078L30 13.4138L31.292 14.7078C31.3849 14.801 31.4952 14.8748 31.6167 14.9253C31.7382 14.9757 31.8685 15.0016 32 15.0016C32.1315 15.0016 32.2618 14.9757 32.3833 14.9253C32.5048 14.8748 32.6151 14.801 32.708 14.7078L34 13.4138L35.292 14.7078C35.3849 14.801 35.4952 14.8748 35.6167 14.9253C35.7382 14.9757 35.8685 15.0016 36 15.0016C36.1315 15.0016 36.2618 14.9757 36.3833 14.9253C36.5048 14.8748 36.6151 14.801 36.708 14.7078L37.726 13.6878L38 14.2358V39.9998H14V14.2358L14.274 13.6878Z" fill="white"/>
</g>
<defs>
<clipPath id="clip0_151_10816">
<rect width="32" height="32" fill="white" transform="translate(10 10)"/>
</clipPath>
</defs>
</svg>
