<svg width="33" height="31" viewBox="0 0 33 31" fill="none" xmlns="http://www.w3.org/2000/svg">
<path d="M6.83582 7.99996C6.83582 7.73474 6.94117 7.48039 7.12871 7.29285C7.31625 7.10531 7.5706 6.99996 7.83582 6.99996H19.8358C20.101 6.99996 20.3554 7.10531 20.5429 7.29285C20.7305 7.48039 20.8358 7.73474 20.8358 7.99996C20.8358 8.26517 20.7305 8.51953 20.5429 8.70706C20.3554 8.8946 20.101 8.99996 19.8358 8.99996H7.83582C7.5706 8.99996 7.31625 8.8946 7.12871 8.70706C6.94117 8.51953 6.83582 8.26517 6.83582 7.99996ZM6.83582 12C6.83582 11.7347 6.94117 11.4804 7.12871 11.2928C7.31625 11.1053 7.5706 11 7.83582 11H19.8358C20.101 11 20.3554 11.1053 20.5429 11.2928C20.7305 11.4804 20.8358 11.7347 20.8358 12C20.8358 12.2652 20.7305 12.5195 20.5429 12.7071C20.3554 12.8946 20.101 13 19.8358 13H7.83582C7.5706 13 7.31625 12.8946 7.12871 12.7071C6.94117 12.5195 6.83582 12.2652 6.83582 12ZM6.83582 16C6.83582 15.7347 6.94117 15.4804 7.12871 15.2928C7.31625 15.1053 7.5706 15 7.83582 15H19.8358C20.101 15 20.3554 15.1053 20.5429 15.2928C20.7305 15.4804 20.8358 15.7347 20.8358 16C20.8358 16.2652 20.7305 16.5195 20.5429 16.7071C20.3554 16.8946 20.101 17 19.8358 17H7.83582C7.5706 17 7.31625 16.8946 7.12871 16.7071C6.94117 16.5195 6.83582 16.2652 6.83582 16ZM6.83582 20C6.83582 19.7347 6.94117 19.4804 7.12871 19.2928C7.31625 19.1053 7.5706 19 7.83582 19H19.8358C20.101 19 20.3554 19.1053 20.5429 19.2928C20.7305 19.4804 20.8358 19.7347 20.8358 20C20.8358 20.2652 20.7305 20.5195 20.5429 20.7071C20.3554 20.8946 20.101 21 19.8358 21H7.83582C7.5706 21 7.31625 20.8946 7.12871 20.7071C6.94117 20.5195 6.83582 20.2652 6.83582 20ZM6.83582 24C6.83582 23.7347 6.94117 23.4804 7.12871 23.2928C7.31625 23.1053 7.5706 23 7.83582 23H19.8358C20.101 23 20.3554 23.1053 20.5429 23.2928C20.7305 23.4804 20.8358 23.7347 20.8358 24C20.8358 24.2652 20.7305 24.5195 20.5429 24.7071C20.3554 24.8946 20.101 25 19.8358 25H7.83582C7.5706 25 7.31625 24.8946 7.12871 24.7071C6.94117 24.5195 6.83582 24.2652 6.83582 24ZM23.8358 6.99996C23.5706 6.99996 23.3162 7.10531 23.1287 7.29285C22.9412 7.48039 22.8358 7.73474 22.8358 7.99996C22.8358 8.26517 22.9412 8.51953 23.1287 8.70706C23.3162 8.8946 23.5706 8.99996 23.8358 8.99996H25.8358C26.101 8.99996 26.3554 8.8946 26.5429 8.70706C26.7305 8.51953 26.8358 8.26517 26.8358 7.99996C26.8358 7.73474 26.7305 7.48039 26.5429 7.29285C26.3554 7.10531 26.101 6.99996 25.8358 6.99996H23.8358ZM23.8358 11C23.5706 11 23.3162 11.1053 23.1287 11.2928C22.9412 11.4804 22.8358 11.7347 22.8358 12C22.8358 12.2652 22.9412 12.5195 23.1287 12.7071C23.3162 12.8946 23.5706 13 23.8358 13H25.8358C26.101 13 26.3554 12.8946 26.5429 12.7071C26.7305 12.5195 26.8358 12.2652 26.8358 12C26.8358 11.7347 26.7305 11.4804 26.5429 11.2928C26.3554 11.1053 26.101 11 25.8358 11H23.8358ZM23.8358 15C23.5706 15 23.3162 15.1053 23.1287 15.2928C22.9412 15.4804 22.8358 15.7347 22.8358 16C22.8358 16.2652 22.9412 16.5195 23.1287 16.7071C23.3162 16.8946 23.5706 17 23.8358 17H25.8358C26.101 17 26.3554 16.8946 26.5429 16.7071C26.7305 16.5195 26.8358 16.2652 26.8358 16C26.8358 15.7347 26.7305 15.4804 26.5429 15.2928C26.3554 15.1053 26.101 15 25.8358 15H23.8358ZM23.8358 19C23.5706 19 23.3162 19.1053 23.1287 19.2928C22.9412 19.4804 22.8358 19.7347 22.8358 20C22.8358 20.2652 22.9412 20.5195 23.1287 20.7071C23.3162 20.8946 23.5706 21 23.8358 21H25.8358C26.101 21 26.3554 20.8946 26.5429 20.7071C26.7305 20.5195 26.8358 20.2652 26.8358 20C26.8358 19.7347 26.7305 19.4804 26.5429 19.2928C26.3554 19.1053 26.101 19 25.8358 19H23.8358ZM23.8358 23C23.5706 23 23.3162 23.1053 23.1287 23.2928C22.9412 23.4804 22.8358 23.7347 22.8358 24C22.8358 24.2652 22.9412 24.5195 23.1287 24.7071C23.3162 24.8946 23.5706 25 23.8358 25H25.8358C26.101 25 26.3554 24.8946 26.5429 24.7071C26.7305 24.5195 26.8358 24.2652 26.8358 24C26.8358 23.7347 26.7305 23.4804 26.5429 23.2928C26.3554 23.1053 26.101 23 25.8358 23H23.8358Z" fill="#5A4A42"/>
<path d="M5.54382 0.291957C5.43177 0.179822 5.29467 0.095931 5.14382 0.0472037C4.99298 -0.0015237 4.83271 -0.0136916 4.67623 0.0117036C4.51976 0.0370988 4.37156 0.0993294 4.24387 0.193263C4.11618 0.287196 4.01265 0.410141 3.94182 0.551957L2.94182 2.55196C2.87212 2.69101 2.83583 2.84441 2.83582 2.99996V29H1.83582C1.5706 29 1.31625 29.1053 1.12871 29.2928C0.941172 29.4804 0.835815 29.7347 0.835815 30C0.835815 30.2652 0.941172 30.5195 1.12871 30.7071C1.31625 30.8946 1.5706 31 1.83582 31H31.8358C32.101 31 32.3554 30.8946 32.5429 30.7071C32.7305 30.5195 32.8358 30.2652 32.8358 30C32.8358 29.7347 32.7305 29.4804 32.5429 29.2928C32.3554 29.1053 32.101 29 31.8358 29H30.8358V2.99996C30.8358 2.84441 30.7995 2.69101 30.7298 2.55196L29.7298 0.551957C29.6589 0.410501 29.5554 0.287894 29.4279 0.194212C29.3004 0.10053 29.1524 0.0384478 28.9963 0.0130674C28.8401 -0.012313 28.6801 -0.000266794 28.5295 0.0482161C28.3788 0.096699 28.2419 0.180234 28.1298 0.291957L26.8358 1.58596L25.5438 0.291957C25.4509 0.19883 25.3406 0.124944 25.2191 0.0745314C25.0976 0.0241185 24.9674 -0.00183105 24.8358 -0.00183105C24.7043 -0.00183105 24.574 0.0241185 24.4525 0.0745314C24.3311 0.124944 24.2207 0.19883 24.1278 0.291957L22.8358 1.58596L21.5438 0.291957C21.4509 0.19883 21.3406 0.124944 21.2191 0.0745314C21.0976 0.0241185 20.9674 -0.00183105 20.8358 -0.00183105C20.7043 -0.00183105 20.574 0.0241185 20.4525 0.0745314C20.3311 0.124944 20.2207 0.19883 20.1278 0.291957L18.8358 1.58596L17.5438 0.291957C17.4509 0.19883 17.3406 0.124944 17.2191 0.0745314C17.0976 0.0241185 16.9674 -0.00183105 16.8358 -0.00183105C16.7043 -0.00183105 16.574 0.0241185 16.4525 0.0745314C16.3311 0.124944 16.2207 0.19883 16.1278 0.291957L14.8358 1.58596L13.5438 0.291957C13.4509 0.19883 13.3406 0.124944 13.2191 0.0745314C13.0976 0.0241185 12.9674 -0.00183105 12.8358 -0.00183105C12.7043 -0.00183105 12.574 0.0241185 12.4525 0.0745314C12.3311 0.124944 12.2207 0.19883 12.1278 0.291957L10.8358 1.58596L9.54382 0.291957C9.45092 0.19883 9.34057 0.124944 9.21908 0.0745314C9.09759 0.0241185 8.96735 -0.00183105 8.83582 -0.00183105C8.70428 -0.00183105 8.57404 0.0241185 8.45255 0.0745314C8.33106 0.124944 8.22071 0.19883 8.12782 0.291957L6.83582 1.58596L5.54382 0.291957ZM5.10982 2.68796L6.12982 3.70796C6.31734 3.89543 6.57165 4.00074 6.83682 4.00074C7.10198 4.00074 7.35629 3.89543 7.54382 3.70796L8.83582 2.41396L10.1278 3.70796C10.2207 3.80108 10.3311 3.87497 10.4525 3.92538C10.574 3.97579 10.7043 4.00174 10.8358 4.00174C10.9674 4.00174 11.0976 3.97579 11.2191 3.92538C11.3406 3.87497 11.4509 3.80108 11.5438 3.70796L12.8358 2.41396L14.1278 3.70796C14.2207 3.80108 14.3311 3.87497 14.4525 3.92538C14.574 3.97579 14.7043 4.00174 14.8358 4.00174C14.9674 4.00174 15.0976 3.97579 15.2191 3.92538C15.3406 3.87497 15.4509 3.80108 15.5438 3.70796L16.8358 2.41396L18.1278 3.70796C18.2207 3.80108 18.3311 3.87497 18.4525 3.92538C18.574 3.97579 18.7043 4.00174 18.8358 4.00174C18.9674 4.00174 19.0976 3.97579 19.2191 3.92538C19.3406 3.87497 19.4509 3.80108 19.5438 3.70796L20.8358 2.41396L22.1278 3.70796C22.2207 3.80108 22.3311 3.87497 22.4525 3.92538C22.574 3.97579 22.7043 4.00174 22.8358 4.00174C22.9674 4.00174 23.0976 3.97579 23.2191 3.92538C23.3406 3.87497 23.4509 3.80108 23.5438 3.70796L24.8358 2.41396L26.1278 3.70796C26.2207 3.80108 26.3311 3.87497 26.4525 3.92538C26.574 3.97579 26.7043 4.00174 26.8358 4.00174C26.9674 4.00174 27.0976 3.97579 27.2191 3.92538C27.3406 3.87497 27.4509 3.80108 27.5438 3.70796L28.5618 2.68796L28.8358 3.23596V29H4.83582V3.23596L5.10982 2.68796Z" fill="#5A4A42"/>
</svg>
