<svg width="52" height="52" viewBox="0 0 52 52" fill="none" xmlns="http://www.w3.org/2000/svg">
<circle cx="26" cy="26" r="26" fill="#628369"/>
<g clip-path="url(#clip0_151_11962)">
<path d="M21 29.022C21.152 30.93 22.66 32.416 25.364 32.592V34H26.564V32.582C29.364 32.386 31 30.89 31 28.718C31 26.744 29.748 25.726 27.51 25.198L26.564 24.974V21.14C27.764 21.276 28.528 21.932 28.712 22.84H30.816C30.664 21.002 29.088 19.564 26.564 19.408V18H25.364V19.438C22.974 19.672 21.344 21.11 21.344 23.144C21.344 24.944 22.556 26.088 24.57 26.558L25.364 26.754V30.822C24.134 30.636 23.32 29.962 23.136 29.022H21ZM25.354 24.69C24.174 24.416 23.534 23.858 23.534 23.018C23.534 22.078 24.224 21.374 25.364 21.168V24.688L25.354 24.69ZM26.738 27.076C28.172 27.408 28.834 27.946 28.834 28.896C28.834 29.98 28.01 30.724 26.564 30.86V27.036L26.738 27.076Z" fill="white"/>
<path d="M26 40C22.287 40 18.726 38.525 16.1005 35.8995C13.475 33.274 12 29.713 12 26C12 22.287 13.475 18.726 16.1005 16.1005C18.726 13.475 22.287 12 26 12C29.713 12 33.274 13.475 35.8995 16.1005C38.525 18.726 40 22.287 40 26C40 29.713 38.525 33.274 35.8995 35.8995C33.274 38.525 29.713 40 26 40ZM26 42C30.2435 42 34.3131 40.3143 37.3137 37.3137C40.3143 34.3131 42 30.2435 42 26C42 21.7565 40.3143 17.6869 37.3137 14.6863C34.3131 11.6857 30.2435 10 26 10C21.7565 10 17.6869 11.6857 14.6863 14.6863C11.6857 17.6869 10 21.7565 10 26C10 30.2435 11.6857 34.3131 14.6863 37.3137C17.6869 40.3143 21.7565 42 26 42Z" fill="white"/>
<path d="M26 37C23.0826 37 20.2847 35.8411 18.2218 33.7782C16.1589 31.7153 15 28.9174 15 26C15 23.0826 16.1589 20.2847 18.2218 18.2218C20.2847 16.1589 23.0826 15 26 15C28.9174 15 31.7153 16.1589 33.7782 18.2218C35.8411 20.2847 37 23.0826 37 26C37 28.9174 35.8411 31.7153 33.7782 33.7782C31.7153 35.8411 28.9174 37 26 37ZM26 38C27.5759 38 29.1363 37.6896 30.5922 37.0866C32.0481 36.4835 33.371 35.5996 34.4853 34.4853C35.5996 33.371 36.4835 32.0481 37.0866 30.5922C37.6896 29.1363 38 27.5759 38 26C38 24.4241 37.6896 22.8637 37.0866 21.4078C36.4835 19.9519 35.5996 18.629 34.4853 17.5147C33.371 16.4004 32.0481 15.5165 30.5922 14.9134C29.1363 14.3104 27.5759 14 26 14C22.8174 14 19.7652 15.2643 17.5147 17.5147C15.2643 19.7652 14 22.8174 14 26C14 29.1826 15.2643 32.2348 17.5147 34.4853C19.7652 36.7357 22.8174 38 26 38Z" fill="white"/>
</g>
<defs>
<clipPath id="clip0_151_11962">
<rect width="32" height="32" fill="white" transform="translate(10 10)"/>
</clipPath>
</defs>
</svg>
