<svg width="33" height="32" viewBox="0 0 33 32" fill="none" xmlns="http://www.w3.org/2000/svg">
<path d="M11.8358 19.022C11.9878 20.93 13.4958 22.416 16.1998 22.592V24H17.3998V22.582C20.1998 22.386 21.8358 20.89 21.8358 18.718C21.8358 16.744 20.5838 15.726 18.3458 15.198L17.3998 14.974V11.14C18.5998 11.276 19.3638 11.932 19.5478 12.84H21.6518C21.4998 11.002 19.9238 9.564 17.3998 9.408V8H16.1998V9.438C13.8098 9.672 12.1798 11.11 12.1798 13.144C12.1798 14.944 13.3918 16.088 15.4058 16.558L16.1998 16.754V20.822C14.9698 20.636 14.1558 19.962 13.9718 19.022H11.8358ZM16.1898 14.69C15.0098 14.416 14.3698 13.858 14.3698 13.018C14.3698 12.078 15.0598 11.374 16.1998 11.168V14.688L16.1898 14.69ZM17.5738 17.076C19.0078 17.408 19.6698 17.946 19.6698 18.896C19.6698 19.98 18.8458 20.724 17.3998 20.86V17.036L17.5738 17.076Z" fill="#5A4A42"/>
<path d="M16.8358 30C13.1228 30 9.56183 28.525 6.93632 25.8995C4.31081 23.274 2.83582 19.713 2.83582 16C2.83582 12.287 4.31081 8.72601 6.93632 6.1005C9.56183 3.475 13.1228 2 16.8358 2C20.5488 2 24.1098 3.475 26.7353 6.1005C29.3608 8.72601 30.8358 12.287 30.8358 16C30.8358 19.713 29.3608 23.274 26.7353 25.8995C24.1098 28.525 20.5488 30 16.8358 30ZM16.8358 32C21.0793 32 25.1489 30.3143 28.1495 27.3137C31.1501 24.3131 32.8358 20.2435 32.8358 16C32.8358 11.7565 31.1501 7.68687 28.1495 4.68629C25.1489 1.68571 21.0793 0 16.8358 0C12.5924 0 8.52269 1.68571 5.52211 4.68629C2.52153 7.68687 0.835815 11.7565 0.835815 16C0.835815 20.2435 2.52153 24.3131 5.52211 27.3137C8.52269 30.3143 12.5924 32 16.8358 32Z" fill="#5A4A42"/>
<path d="M16.8358 27C13.9184 27 11.1205 25.8411 9.05764 23.7782C6.99474 21.7153 5.83582 18.9174 5.83582 16C5.83582 13.0826 6.99474 10.2847 9.05764 8.22183C11.1205 6.15893 13.9184 5 16.8358 5C19.7532 5 22.5511 6.15893 24.614 8.22183C26.6769 10.2847 27.8358 13.0826 27.8358 16C27.8358 18.9174 26.6769 21.7153 24.614 23.7782C22.5511 25.8411 19.7532 27 16.8358 27ZM16.8358 28C18.4117 28 19.9721 27.6896 21.428 27.0866C22.8839 26.4835 24.2068 25.5996 25.3211 24.4853C26.4354 23.371 27.3193 22.0481 27.9224 20.5922C28.5254 19.1363 28.8358 17.5759 28.8358 16C28.8358 14.4241 28.5254 12.8637 27.9224 11.4078C27.3193 9.95189 26.4354 8.62902 25.3211 7.51472C24.2068 6.40042 22.8839 5.5165 21.428 4.91345C19.9721 4.31039 18.4117 4 16.8358 4C13.6532 4 10.601 5.26428 8.35053 7.51472C6.1001 9.76515 4.83582 12.8174 4.83582 16C4.83582 19.1826 6.1001 22.2348 8.35053 24.4853C10.601 26.7357 13.6532 28 16.8358 28Z" fill="#5A4A42"/>
</svg>
