<svg width="31" height="32" viewBox="0 0 31 32" fill="none" xmlns="http://www.w3.org/2000/svg">
<path d="M10.8358 21C10.8358 20.7348 10.9412 20.4804 11.1287 20.2929C11.3162 20.1054 11.5706 20 11.8358 20H15.8358C16.101 20 16.3554 20.1054 16.5429 20.2929C16.7305 20.4804 16.8358 20.7348 16.8358 21C16.8358 21.2652 16.7305 21.5196 16.5429 21.7071C16.3554 21.8946 16.101 22 15.8358 22H11.8358C11.5706 22 11.3162 21.8946 11.1287 21.7071C10.9412 21.5196 10.8358 21.2652 10.8358 21ZM10.8358 17C10.8358 16.7348 10.9412 16.4804 11.1287 16.2929C11.3162 16.1054 11.5706 16 11.8358 16H21.8358C22.101 16 22.3554 16.1054 22.5429 16.2929C22.7305 16.4804 22.8358 16.7348 22.8358 17C22.8358 17.2652 22.7305 17.5196 22.5429 17.7071C22.3554 17.8946 22.101 18 21.8358 18H11.8358C11.5706 18 11.3162 17.8946 11.1287 17.7071C10.9412 17.5196 10.8358 17.2652 10.8358 17ZM10.8358 13C10.8358 12.7348 10.9412 12.4804 11.1287 12.2929C11.3162 12.1054 11.5706 12 11.8358 12H21.8358C22.101 12 22.3554 12.1054 22.5429 12.2929C22.7305 12.4804 22.8358 12.7348 22.8358 13C22.8358 13.2652 22.7305 13.5196 22.5429 13.7071C22.3554 13.8946 22.101 14 21.8358 14H11.8358C11.5706 14 11.3162 13.8946 11.1287 13.7071C10.9412 13.5196 10.8358 13.2652 10.8358 13ZM10.8358 9C10.8358 8.73478 10.9412 8.48043 11.1287 8.29289C11.3162 8.10536 11.5706 8 11.8358 8H21.8358C22.101 8 22.3554 8.10536 22.5429 8.29289C22.7305 8.48043 22.8358 8.73478 22.8358 9C22.8358 9.26522 22.7305 9.51957 22.5429 9.70711C22.3554 9.89464 22.101 10 21.8358 10H11.8358C11.5706 10 11.3162 9.89464 11.1287 9.70711C10.9412 9.51957 10.8358 9.26522 10.8358 9Z" fill="#5A4A42"/>
<path d="M6.83582 0H26.8358C27.8967 0 28.9141 0.421427 29.6642 1.17157C30.4144 1.92172 30.8358 2.93913 30.8358 4V28C30.8358 29.0609 30.4144 30.0783 29.6642 30.8284C28.9141 31.5786 27.8967 32 26.8358 32H6.83582C5.77495 32 4.75753 31.5786 4.00739 30.8284C3.25724 30.0783 2.83582 29.0609 2.83582 28V26H4.83582V28C4.83582 28.5304 5.04653 29.0391 5.4216 29.4142C5.79667 29.7893 6.30538 30 6.83582 30H26.8358C27.3662 30 27.875 29.7893 28.25 29.4142C28.6251 29.0391 28.8358 28.5304 28.8358 28V4C28.8358 3.46957 28.6251 2.96086 28.25 2.58579C27.875 2.21071 27.3662 2 26.8358 2H6.83582C6.30538 2 5.79667 2.21071 5.4216 2.58579C5.04653 2.96086 4.83582 3.46957 4.83582 4V6H2.83582V4C2.83582 2.93913 3.25724 1.92172 4.00739 1.17157C4.75753 0.421427 5.77495 0 6.83582 0Z" fill="#5A4A42"/>
<path d="M2.83582 10V9C2.83582 8.73478 2.94117 8.48043 3.12871 8.29289C3.31625 8.10536 3.5706 8 3.83582 8C4.10103 8 4.35539 8.10536 4.54292 8.29289C4.73046 8.48043 4.83582 8.73478 4.83582 9V10H5.83582C6.10103 10 6.35539 10.1054 6.54292 10.2929C6.73046 10.4804 6.83582 10.7348 6.83582 11C6.83582 11.2652 6.73046 11.5196 6.54292 11.7071C6.35539 11.8946 6.10103 12 5.83582 12H1.83582C1.5706 12 1.31625 11.8946 1.12871 11.7071C0.941172 11.5196 0.835815 11.2652 0.835815 11C0.835815 10.7348 0.941172 10.4804 1.12871 10.2929C1.31625 10.1054 1.5706 10 1.83582 10H2.83582ZM2.83582 16V15C2.83582 14.7348 2.94117 14.4804 3.12871 14.2929C3.31625 14.1054 3.5706 14 3.83582 14C4.10103 14 4.35539 14.1054 4.54292 14.2929C4.73046 14.4804 4.83582 14.7348 4.83582 15V16H5.83582C6.10103 16 6.35539 16.1054 6.54292 16.2929C6.73046 16.4804 6.83582 16.7348 6.83582 17C6.83582 17.2652 6.73046 17.5196 6.54292 17.7071C6.35539 17.8946 6.10103 18 5.83582 18H1.83582C1.5706 18 1.31625 17.8946 1.12871 17.7071C0.941172 17.5196 0.835815 17.2652 0.835815 17C0.835815 16.7348 0.941172 16.4804 1.12871 16.2929C1.31625 16.1054 1.5706 16 1.83582 16H2.83582ZM2.83582 22V21C2.83582 20.7348 2.94117 20.4804 3.12871 20.2929C3.31625 20.1054 3.5706 20 3.83582 20C4.10103 20 4.35539 20.1054 4.54292 20.2929C4.73046 20.4804 4.83582 20.7348 4.83582 21V22H5.83582C6.10103 22 6.35539 22.1054 6.54292 22.2929C6.73046 22.4804 6.83582 22.7348 6.83582 23C6.83582 23.2652 6.73046 23.5196 6.54292 23.7071C6.35539 23.8946 6.10103 24 5.83582 24H1.83582C1.5706 24 1.31625 23.8946 1.12871 23.7071C0.941172 23.5196 0.835815 23.2652 0.835815 23C0.835815 22.7348 0.941172 22.4804 1.12871 22.2929C1.31625 22.1054 1.5706 22 1.83582 22H2.83582Z" fill="#5A4A42"/>
</svg>
