<svg width="52" height="52" viewBox="0 0 52 52" fill="none" xmlns="http://www.w3.org/2000/svg">
<circle cx="26" cy="26" r="26" fill="#628369"/>
<path d="M20 31C20 30.7348 20.1054 30.4804 20.2929 30.2929C20.4804 30.1054 20.7348 30 21 30H25C25.2652 30 25.5196 30.1054 25.7071 30.2929C25.8946 30.4804 26 30.7348 26 31C26 31.2652 25.8946 31.5196 25.7071 31.7071C25.5196 31.8946 25.2652 32 25 32H21C20.7348 32 20.4804 31.8946 20.2929 31.7071C20.1054 31.5196 20 31.2652 20 31ZM20 27C20 26.7348 20.1054 26.4804 20.2929 26.2929C20.4804 26.1054 20.7348 26 21 26H31C31.2652 26 31.5196 26.1054 31.7071 26.2929C31.8946 26.4804 32 26.7348 32 27C32 27.2652 31.8946 27.5196 31.7071 27.7071C31.5196 27.8946 31.2652 28 31 28H21C20.7348 28 20.4804 27.8946 20.2929 27.7071C20.1054 27.5196 20 27.2652 20 27ZM20 23C20 22.7348 20.1054 22.4804 20.2929 22.2929C20.4804 22.1054 20.7348 22 21 22H31C31.2652 22 31.5196 22.1054 31.7071 22.2929C31.8946 22.4804 32 22.7348 32 23C32 23.2652 31.8946 23.5196 31.7071 23.7071C31.5196 23.8946 31.2652 24 31 24H21C20.7348 24 20.4804 23.8946 20.2929 23.7071C20.1054 23.5196 20 23.2652 20 23ZM20 19C20 18.7348 20.1054 18.4804 20.2929 18.2929C20.4804 18.1054 20.7348 18 21 18H31C31.2652 18 31.5196 18.1054 31.7071 18.2929C31.8946 18.4804 32 18.7348 32 19C32 19.2652 31.8946 19.5196 31.7071 19.7071C31.5196 19.8946 31.2652 20 31 20H21C20.7348 20 20.4804 19.8946 20.2929 19.7071C20.1054 19.5196 20 19.2652 20 19Z" fill="white"/>
<path d="M16 10H36C37.0609 10 38.0783 10.4214 38.8284 11.1716C39.5786 11.9217 40 12.9391 40 14V38C40 39.0609 39.5786 40.0783 38.8284 40.8284C38.0783 41.5786 37.0609 42 36 42H16C14.9391 42 13.9217 41.5786 13.1716 40.8284C12.4214 40.0783 12 39.0609 12 38V36H14V38C14 38.5304 14.2107 39.0391 14.5858 39.4142C14.9609 39.7893 15.4696 40 16 40H36C36.5304 40 37.0391 39.7893 37.4142 39.4142C37.7893 39.0391 38 38.5304 38 38V14C38 13.4696 37.7893 12.9609 37.4142 12.5858C37.0391 12.2107 36.5304 12 36 12H16C15.4696 12 14.9609 12.2107 14.5858 12.5858C14.2107 12.9609 14 13.4696 14 14V16H12V14C12 12.9391 12.4214 11.9217 13.1716 11.1716C13.9217 10.4214 14.9391 10 16 10Z" fill="white"/>
<path d="M12 20V19C12 18.7348 12.1054 18.4804 12.2929 18.2929C12.4804 18.1054 12.7348 18 13 18C13.2652 18 13.5196 18.1054 13.7071 18.2929C13.8946 18.4804 14 18.7348 14 19V20H15C15.2652 20 15.5196 20.1054 15.7071 20.2929C15.8946 20.4804 16 20.7348 16 21C16 21.2652 15.8946 21.5196 15.7071 21.7071C15.5196 21.8946 15.2652 22 15 22H11C10.7348 22 10.4804 21.8946 10.2929 21.7071C10.1054 21.5196 10 21.2652 10 21C10 20.7348 10.1054 20.4804 10.2929 20.2929C10.4804 20.1054 10.7348 20 11 20H12ZM12 26V25C12 24.7348 12.1054 24.4804 12.2929 24.2929C12.4804 24.1054 12.7348 24 13 24C13.2652 24 13.5196 24.1054 13.7071 24.2929C13.8946 24.4804 14 24.7348 14 25V26H15C15.2652 26 15.5196 26.1054 15.7071 26.2929C15.8946 26.4804 16 26.7348 16 27C16 27.2652 15.8946 27.5196 15.7071 27.7071C15.5196 27.8946 15.2652 28 15 28H11C10.7348 28 10.4804 27.8946 10.2929 27.7071C10.1054 27.5196 10 27.2652 10 27C10 26.7348 10.1054 26.4804 10.2929 26.2929C10.4804 26.1054 10.7348 26 11 26H12ZM12 32V31C12 30.7348 12.1054 30.4804 12.2929 30.2929C12.4804 30.1054 12.7348 30 13 30C13.2652 30 13.5196 30.1054 13.7071 30.2929C13.8946 30.4804 14 30.7348 14 31V32H15C15.2652 32 15.5196 32.1054 15.7071 32.2929C15.8946 32.4804 16 32.7348 16 33C16 33.2652 15.8946 33.5196 15.7071 33.7071C15.5196 33.8946 15.2652 34 15 34H11C10.7348 34 10.4804 33.8946 10.2929 33.7071C10.1054 33.5196 10 33.2652 10 33C10 32.7348 10.1054 32.4804 10.2929 32.2929C10.4804 32.1054 10.7348 32 11 32H12Z" fill="white"/>
</svg>
